<svg xmlns="http://www.w3.org/2000/svg" xmlns:xlink="http://www.w3.org/1999/xlink" width="1000" zoomAndPan="magnify" viewBox="0 0 750 749.999995" height="1000" preserveAspectRatio="xMidYMid meet" version="1.0"><defs><g/></defs><g fill="#000000" fill-opacity="1"><g transform="translate(60.36621, 421.272362)"><g><path d="M 60.703125 0.71875 C 50.753906 0.71875 41.769531 -1.523438 33.75 -6.015625 C 25.738281 -10.503906 19.4375 -16.660156 14.84375 -24.484375 C 10.257812 -32.304688 7.96875 -41.046875 7.96875 -50.703125 C 7.96875 -60.359375 10.257812 -69.097656 14.84375 -76.921875 C 19.4375 -84.742188 25.738281 -90.898438 33.75 -95.390625 C 41.769531 -99.878906 50.753906 -102.125 60.703125 -102.125 C 70.640625 -102.125 79.613281 -99.898438 87.625 -95.453125 C 95.644531 -91.015625 101.945312 -84.882812 106.53125 -77.0625 C 111.125 -69.238281 113.421875 -60.453125 113.421875 -50.703125 C 113.421875 -40.941406 111.125 -32.148438 106.53125 -24.328125 C 101.945312 -16.515625 95.644531 -10.382812 87.625 -5.9375 C 79.613281 -1.5 70.640625 0.71875 60.703125 0.71875 Z M 60.703125 -6.078125 C 69.191406 -6.078125 76.863281 -8.007812 83.71875 -11.875 C 90.582031 -15.738281 95.992188 -21.070312 99.953125 -27.875 C 103.910156 -34.6875 105.890625 -42.296875 105.890625 -50.703125 C 105.890625 -59.097656 103.910156 -66.703125 99.953125 -73.515625 C 95.992188 -80.328125 90.582031 -85.660156 83.71875 -89.515625 C 76.863281 -93.378906 69.191406 -95.3125 60.703125 -95.3125 C 52.203125 -95.3125 44.5 -93.378906 37.59375 -89.515625 C 30.6875 -85.660156 25.253906 -80.328125 21.296875 -73.515625 C 17.335938 -66.703125 15.359375 -59.097656 15.359375 -50.703125 C 15.359375 -42.296875 17.335938 -34.6875 21.296875 -27.875 C 25.253906 -21.070312 30.6875 -15.738281 37.59375 -11.875 C 44.5 -8.007812 52.203125 -6.078125 60.703125 -6.078125 Z M 60.703125 -6.078125 "/></g></g></g><g fill="#000000" fill-opacity="1"><g transform="translate(181.755014, 421.272362)"><g><path d="M 81.265625 0 L 46.359375 -46.9375 L 11.59375 0 L 2.890625 0 L 41.859375 -52.296875 L 5.65625 -101.40625 L 14.34375 -101.40625 L 46.640625 -57.796875 L 78.953125 -101.40625 L 87.203125 -101.40625 L 50.984375 -52.4375 L 89.953125 0 Z M 81.265625 0 "/></g></g></g><g fill="#000000" fill-opacity="1"><g transform="translate(274.752172, 421.272362)"><g><path d="M 25.0625 -94.734375 L 25.0625 -51.421875 L 79.09375 -51.421875 L 79.09375 -44.765625 L 25.0625 -44.765625 L 25.0625 0 L 17.671875 0 L 17.671875 -101.40625 L 85.46875 -101.40625 L 85.46875 -94.734375 Z M 25.0625 -94.734375 "/></g></g></g><g fill="#000000" fill-opacity="1"><g transform="translate(366.155899, 421.272362)"><g><path d="M 60.703125 0.71875 C 50.753906 0.71875 41.769531 -1.523438 33.75 -6.015625 C 25.738281 -10.503906 19.4375 -16.660156 14.84375 -24.484375 C 10.257812 -32.304688 7.96875 -41.046875 7.96875 -50.703125 C 7.96875 -60.359375 10.257812 -69.097656 14.84375 -76.921875 C 19.4375 -84.742188 25.738281 -90.898438 33.75 -95.390625 C 41.769531 -99.878906 50.753906 -102.125 60.703125 -102.125 C 70.640625 -102.125 79.613281 -99.898438 87.625 -95.453125 C 95.644531 -91.015625 101.945312 -84.882812 106.53125 -77.0625 C 111.125 -69.238281 113.421875 -60.453125 113.421875 -50.703125 C 113.421875 -40.941406 111.125 -32.148438 106.53125 -24.328125 C 101.945312 -16.515625 95.644531 -10.382812 87.625 -5.9375 C 79.613281 -1.5 70.640625 0.71875 60.703125 0.71875 Z M 60.703125 -6.078125 C 69.191406 -6.078125 76.863281 -8.007812 83.71875 -11.875 C 90.582031 -15.738281 95.992188 -21.070312 99.953125 -27.875 C 103.910156 -34.6875 105.890625 -42.296875 105.890625 -50.703125 C 105.890625 -59.097656 103.910156 -66.703125 99.953125 -73.515625 C 95.992188 -80.328125 90.582031 -85.660156 83.71875 -89.515625 C 76.863281 -93.378906 69.191406 -95.3125 60.703125 -95.3125 C 52.203125 -95.3125 44.5 -93.378906 37.59375 -89.515625 C 30.6875 -85.660156 25.253906 -80.328125 21.296875 -73.515625 C 17.335938 -66.703125 15.359375 -59.097656 15.359375 -50.703125 C 15.359375 -42.296875 17.335938 -34.6875 21.296875 -27.875 C 25.253906 -21.070312 30.6875 -15.738281 37.59375 -11.875 C 44.5 -8.007812 52.203125 -6.078125 60.703125 -6.078125 Z M 60.703125 -6.078125 "/></g></g></g><g fill="#000000" fill-opacity="1"><g transform="translate(487.544703, 421.272362)"><g><path d="M 88.078125 0 L 63.890625 -33.890625 C 60.304688 -33.410156 57.019531 -33.171875 54.03125 -33.171875 L 25.0625 -33.171875 L 25.0625 0 L 17.671875 0 L 17.671875 -101.40625 L 54.03125 -101.40625 C 66.78125 -101.40625 76.773438 -98.382812 84.015625 -92.34375 C 91.265625 -86.3125 94.890625 -77.9375 94.890625 -67.21875 C 94.890625 -59.195312 92.832031 -52.457031 88.71875 -47 C 84.613281 -41.550781 78.75 -37.710938 71.125 -35.484375 L 96.46875 0 Z M 54.03125 -39.6875 C 64.84375 -39.6875 73.097656 -42.078125 78.796875 -46.859375 C 84.492188 -51.640625 87.34375 -58.425781 87.34375 -67.21875 C 87.34375 -76 84.492188 -82.78125 78.796875 -87.5625 C 73.097656 -92.34375 64.84375 -94.734375 54.03125 -94.734375 L 25.0625 -94.734375 L 25.0625 -39.6875 Z M 54.03125 -39.6875 "/></g></g></g><g fill="#000000" fill-opacity="1"><g transform="translate(591.840566, 421.272362)"><g><path d="M 82.5625 -107.484375 L 82.5625 0 L 75.46875 0 L 75.46875 -17.8125 C 72.476562 -11.925781 68.273438 -7.390625 62.859375 -4.203125 C 57.453125 -1.015625 51.320312 0.578125 44.46875 0.578125 C 37.414062 0.578125 31.039062 -1.0625 25.34375 -4.34375 C 19.644531 -7.625 15.175781 -12.160156 11.9375 -17.953125 C 8.707031 -23.753906 7.09375 -30.375 7.09375 -37.8125 C 7.09375 -45.25 8.707031 -51.882812 11.9375 -57.71875 C 15.175781 -63.5625 19.644531 -68.101562 25.34375 -71.34375 C 31.039062 -74.582031 37.414062 -76.203125 44.46875 -76.203125 C 51.226562 -76.203125 57.285156 -74.609375 62.640625 -71.421875 C 68.003906 -68.234375 72.234375 -63.789062 75.328125 -58.09375 L 75.328125 -107.484375 Z M 44.90625 -5.9375 C 50.695312 -5.9375 55.882812 -7.285156 60.46875 -9.984375 C 65.0625 -12.691406 68.6875 -16.457031 71.34375 -21.28125 C 74 -26.113281 75.328125 -31.625 75.328125 -37.8125 C 75.328125 -43.988281 74 -49.488281 71.34375 -54.3125 C 68.6875 -59.144531 65.0625 -62.910156 60.46875 -65.609375 C 55.882812 -68.316406 50.695312 -69.671875 44.90625 -69.671875 C 39.113281 -69.671875 33.921875 -68.316406 29.328125 -65.609375 C 24.742188 -62.910156 21.125 -59.144531 18.46875 -54.3125 C 15.8125 -49.488281 14.484375 -43.988281 14.484375 -37.8125 C 14.484375 -31.625 15.8125 -26.113281 18.46875 -21.28125 C 21.125 -16.457031 24.742188 -12.691406 29.328125 -9.984375 C 33.921875 -7.285156 39.113281 -5.9375 44.90625 -5.9375 Z M 44.90625 -5.9375 "/></g></g></g></svg>